<svg viewBox="0 0 18 18" xmlns="http://www.w3.org/2000/svg" xmlns:xlink="http://www.w3.org/1999/xlink" width="18.000000" height="18.000000" fill="none" customFrame="#000000">
	<rect id="bell" width="18.000000" height="18.000000" x="0.000000" y="0.000000" />
	<path id="Вектор 33" d="M7.70117 15.75C7.83283 15.978 8.02218 16.1674 8.25021 16.299C8.47823 16.4306 8.73688 16.4999 9.00017 16.4999C9.26346 16.4999 9.52212 16.4306 9.75014 16.299C9.97816 16.1674 10.1675 15.978 10.2992 15.75" fill-rule="nonzero" stroke="rgb(26,32,44)" stroke-linecap="round" stroke-linejoin="round" stroke-width="1.500000" />
	<path id="Вектор 34" d="M2.25984 11.8789C2.23637 12.0223 2.25509 12.1695 2.31373 12.3025C2.37237 12.4356 2.4684 12.5487 2.59014 12.6281C2.71188 12.7075 2.85409 12.7499 2.99945 12.75L14.9995 12.75C15.1448 12.7501 15.287 12.7079 15.4088 12.6286C15.5307 12.5493 15.6268 12.4363 15.6856 12.3034C15.7444 12.1705 15.7633 12.0233 15.74 11.8798C15.7167 11.7364 15.6523 11.6028 15.5545 11.4952C14.557 10.467 13.4995 9.37425 13.4995 6C13.4995 5.04969 13.1986 4.12378 12.64 3.35497C12.0815 2.58615 11.2938 2.01391 10.39 1.72025C9.48623 1.42658 8.51267 1.42658 7.60888 1.72025C6.70508 2.01391 5.91745 2.58615 5.35888 3.35497C4.8003 4.12378 4.49945 5.04969 4.49945 6C4.49945 9.37425 3.4412 10.467 2.44595 11.4945C2.34798 11.6019 2.28332 11.7354 2.25984 11.8789Z" fill-rule="nonzero" stroke="rgb(26,32,44)" stroke-linecap="round" stroke-linejoin="round" stroke-width="1.500000" />
</svg>
