<svg viewBox="0 0 16 16" xmlns="http://www.w3.org/2000/svg" xmlns:xlink="http://www.w3.org/1999/xlink" width="16.000000" height="16.000000" fill="none" customFrame="#000000">
	<rect id="phone-call" width="16.000000" height="16.000000" x="0.000000" y="0.000000" />
	<path id="Вектор 123" d="M8.6665 1.33337C9.71972 1.33337 10.7544 1.61061 11.6665 2.13722C12.5786 2.66383 13.336 3.42126 13.8627 4.33337C14.3893 5.24549 14.6665 6.28015 14.6665 7.33337" fill-rule="nonzero" stroke="rgb(102,126,234)" stroke-linecap="round" stroke-linejoin="round" stroke-width="1.333333" />
	<path id="Вектор 124" d="M8.6665 4C9.25163 4 9.82644 4.15402 10.3332 4.44658C10.8399 4.73914 11.2607 5.15994 11.5533 5.66667C11.8458 6.1734 11.9998 6.74821 11.9998 7.33333" fill-rule="nonzero" stroke="rgb(102,126,234)" stroke-linecap="round" stroke-linejoin="round" stroke-width="1.333333" />
	<path id="Вектор 125" d="M9.2215 11.0454C9.3128 11.0873 9.4124 11.1081 9.51285 11.1061C9.6133 11.1041 9.712 11.0794 9.80158 11.034C9.89116 10.9885 9.9693 10.9233 10.0302 10.8434L10.2668 10.5334C10.391 10.3678 10.5521 10.2334 10.7372 10.1408C10.9224 10.0482 11.1265 10 11.3335 10L13.3335 10C13.5675 10 13.7975 10.0616 14.0002 10.1787C14.2029 10.2957 14.3712 10.464 14.4882 10.6667C14.6052 10.8694 14.6668 11.0993 14.6668 11.3334L14.6668 13.3334C14.6668 13.5674 14.6052 13.7973 14.4882 14C14.3712 14.2027 14.2029 14.3711 14.0002 14.4881C13.7975 14.6051 13.5675 14.6667 13.3335 14.6667C11.2271 14.6667 9.15773 14.1122 7.3335 13.059C5.50926 12.0058 3.99441 10.4909 2.94119 8.66671C1.88797 6.84248 1.3335 4.77315 1.3335 2.66671C1.3335 2.43266 1.3951 2.20273 1.51213 2.00004C1.62915 1.79735 1.79747 1.62903 2.00016 1.51201C2.20286 1.39498 2.43278 1.33337 2.66683 1.33337L4.66683 1.33337C4.90088 1.33337 5.1308 1.39498 5.3335 1.51201C5.53619 1.62903 5.70451 1.79735 5.82153 2.00004C5.93855 2.20273 6.00016 2.43266 6.00016 2.66671L6.00016 4.66671C6.00016 4.8737 5.95197 5.07785 5.8594 5.26299C5.76683 5.44813 5.63242 5.60918 5.46683 5.73337L5.15483 5.96737C5.07368 6.02933 5.00785 6.1091 4.96242 6.20053C4.91698 6.29195 4.89314 6.39259 4.89275 6.49469C4.89236 6.59678 4.91542 6.6976 4.96016 6.78937C5.41264 7.70839 6.01331 8.54666 6.73811 9.27054C7.4629 9.99442 8.30191 10.5941 9.2215 11.0454" fill-rule="nonzero" stroke="rgb(102,126,234)" stroke-linecap="round" stroke-linejoin="round" stroke-width="1.333333" />
</svg>
